<?xml version="1.0" encoding="UTF-8"?>
<svg xmlns="http://www.w3.org/2000/svg" xmlns:xlink="http://www.w3.org/1999/xlink" width="15px" height="15px" viewBox="0 0 15 15" version="1.1">
<g id="surface1">
<path style=" stroke:none;fill-rule:evenodd;fill:rgb(5.882353%,5.882353%,5.882353%);fill-opacity:1;" d="M 7.5 11.25 C 9.570312 11.25 11.25 9.570312 11.25 7.5 C 11.25 5.429688 9.570312 3.75 7.5 3.75 C 5.429688 3.75 3.75 5.429688 3.75 7.5 C 3.75 9.570312 5.429688 11.25 7.5 11.25 Z M 7.5 10 C 8.878906 10 10 8.878906 10 7.5 C 10 6.121094 8.878906 5 7.5 5 C 6.121094 5 5 6.121094 5 7.5 C 5 8.878906 6.121094 10 7.5 10 Z M 7.5 10 "/>
<path style=" stroke:none;fill-rule:nonzero;fill:rgb(5.882353%,5.882353%,5.882353%);fill-opacity:1;" d="M 11.25 3.125 C 10.90625 3.125 10.625 3.40625 10.625 3.75 C 10.625 4.09375 10.90625 4.375 11.25 4.375 C 11.59375 4.375 11.875 4.09375 11.875 3.75 C 11.875 3.40625 11.59375 3.125 11.25 3.125 Z M 11.25 3.125 "/>
<path style=" stroke:none;fill-rule:evenodd;fill:rgb(5.882353%,5.882353%,5.882353%);fill-opacity:1;" d="M 1.035156 2.671875 C 0.625 3.476562 0.625 4.523438 0.625 6.625 L 0.625 8.375 C 0.625 10.476562 0.625 11.523438 1.035156 12.328125 C 1.394531 13.03125 1.96875 13.605469 2.671875 13.964844 C 3.476562 14.375 4.523438 14.375 6.625 14.375 L 8.375 14.375 C 10.476562 14.375 11.523438 14.375 12.328125 13.964844 C 13.03125 13.605469 13.605469 13.03125 13.964844 12.328125 C 14.375 11.523438 14.375 10.476562 14.375 8.375 L 14.375 6.625 C 14.375 4.523438 14.375 3.476562 13.964844 2.671875 C 13.605469 1.96875 13.03125 1.394531 12.328125 1.035156 C 11.523438 0.625 10.476562 0.625 8.375 0.625 L 6.625 0.625 C 4.523438 0.625 3.476562 0.625 2.671875 1.035156 C 1.96875 1.394531 1.394531 1.96875 1.035156 2.671875 Z M 8.375 1.875 L 6.625 1.875 C 5.554688 1.875 4.828125 1.875 4.265625 1.921875 C 3.714844 1.964844 3.433594 2.046875 3.238281 2.148438 C 2.769531 2.386719 2.386719 2.769531 2.148438 3.238281 C 2.046875 3.433594 1.964844 3.714844 1.921875 4.265625 C 1.875 4.828125 1.875 5.554688 1.875 6.625 L 1.875 8.375 C 1.875 9.445312 1.875 10.171875 1.921875 10.734375 C 1.964844 11.285156 2.046875 11.566406 2.148438 11.761719 C 2.386719 12.230469 2.769531 12.613281 3.238281 12.851562 C 3.433594 12.953125 3.714844 13.035156 4.265625 13.078125 C 4.828125 13.125 5.554688 13.125 6.625 13.125 L 8.375 13.125 C 9.445312 13.125 10.171875 13.125 10.734375 13.078125 C 11.285156 13.035156 11.566406 12.953125 11.761719 12.851562 C 12.230469 12.613281 12.613281 12.230469 12.851562 11.761719 C 12.953125 11.566406 13.035156 11.285156 13.078125 10.734375 C 13.125 10.171875 13.125 9.445312 13.125 8.375 L 13.125 6.625 C 13.125 5.554688 13.125 4.828125 13.078125 4.265625 C 13.035156 3.714844 12.953125 3.433594 12.851562 3.238281 C 12.613281 2.769531 12.230469 2.386719 11.761719 2.148438 C 11.566406 2.046875 11.285156 1.964844 10.734375 1.921875 C 10.171875 1.875 9.445312 1.875 8.375 1.875 Z M 8.375 1.875 "/>
</g>
</svg>
