<?xml version="1.0" encoding="UTF-8"?>
<svg xmlns="http://www.w3.org/2000/svg" xmlns:xlink="http://www.w3.org/1999/xlink" width="15px" height="15px" viewBox="0 0 15 15" version="1.1">
<g id="surface1">
<path style=" stroke:none;fill-rule:evenodd;fill:rgb(0%,0%,0%);fill-opacity:1;" d="M 4.71875 13.5 C 10.378906 13.5 13.472656 8.882812 13.472656 4.878906 C 13.472656 4.746094 13.472656 4.617188 13.464844 4.488281 C 14.066406 4.058594 14.585938 3.527344 15 2.917969 C 14.4375 3.164062 13.84375 3.324219 13.234375 3.394531 C 13.875 3.015625 14.355469 2.421875 14.585938 1.71875 C 13.980469 2.074219 13.320312 2.320312 12.632812 2.453125 C 11.464844 1.234375 9.515625 1.175781 8.277344 2.324219 C 7.476562 3.0625 7.136719 4.167969 7.386719 5.21875 C 4.914062 5.097656 2.605469 3.945312 1.042969 2.054688 C 0.226562 3.4375 0.644531 5.207031 1.996094 6.097656 C 1.507812 6.082031 1.027344 5.953125 0.601562 5.71875 L 0.601562 5.757812 C 0.601562 7.199219 1.632812 8.441406 3.070312 8.726562 C 2.617188 8.847656 2.140625 8.867188 1.679688 8.777344 C 2.082031 10.011719 3.238281 10.859375 4.554688 10.882812 C 3.464844 11.726562 2.117188 12.183594 0.734375 12.183594 C 0.488281 12.183594 0.242188 12.167969 0 12.140625 C 1.40625 13.027344 3.046875 13.5 4.71875 13.496094 "/>
</g>
</svg>
